<?xml version="1.0" standalone="no"?>
<!DOCTYPE svg PUBLIC "-//W3C//DTD SVG 20010904//EN"
 "http://www.w3.org/TR/2001/REC-SVG-20010904/DTD/svg10.dtd">
<svg version="1.0" xmlns="http://www.w3.org/2000/svg"
 width="744.000000pt" height="744.000000pt" viewBox="0 0 744.000000 744.000000"
 preserveAspectRatio="xMidYMid meet">

<g transform="translate(0.000000,744.000000) scale(0.100000,-0.100000)"
fill="#000000" stroke="none">
<path d="M17 4038 c-3 -13 -9 -102 -12 -198 -14 -374 39 -801 146 -1167 407
-1393 1598 -2426 3034 -2632 1034 -149 2070 139 2887 801 145 117 409 381 526
526 446 550 721 1193 807 1884 8 67 15 124 15 125 0 2 -38 3 -85 3 -68 0 -91
-4 -113 -19 -21 -15 -53 -20 -152 -26 -82 -4 -133 -11 -147 -21 -16 -10 -52
-14 -121 -14 -76 0 -102 -4 -112 -15 -12 -15 -40 -21 -40 -9 0 15 173 280 246
377 44 57 46 70 10 42 -11 -8 -27 -15 -35 -15 -11 0 -10 4 5 15 12 9 14 14 6
15 -7 0 -28 -11 -46 -25 -26 -20 -45 -25 -92 -25 -43 0 -66 -6 -84 -20 -18
-14 -41 -20 -83 -20 -43 0 -67 -6 -87 -20 -20 -14 -48 -21 -89 -23 -33 -1 -63
-6 -67 -10 -4 -4 -18 -7 -30 -7 -13 0 -26 -4 -29 -10 -3 -5 -21 -10 -39 -10
-17 0 -36 -4 -41 -9 -6 -5 -29 -11 -52 -14 l-43 -5 27 46 c42 73 231 361 277
422 24 30 46 61 50 68 6 9 -639 12 -3212 12 l-3220 0 -5 -22z m5183 -317 c14
-10 31 -34 39 -54 12 -33 11 -40 -8 -79 -11 -24 -36 -54 -56 -67 l-35 -23 63
-68 c39 -43 65 -64 69 -56 4 6 11 32 14 59 6 45 8 47 39 47 33 0 33 0 28 -42
-3 -24 -13 -62 -23 -84 l-18 -42 49 -48 c27 -27 49 -52 49 -56 0 -4 -19 -8
-43 -8 -35 0 -49 6 -72 30 -25 26 -30 28 -45 15 -47 -43 -159 -58 -223 -31
-42 17 -85 68 -92 110 -8 42 15 100 60 146 l34 35 -29 44 c-34 49 -38 87 -14
132 33 64 152 86 214 40z m-2680 -16 l0 -35 -140 0 -140 0 0 -85 0 -85 120 0
120 0 0 -30 0 -30 -120 0 -119 0 -3 -117 -3 -118 -35 0 -35 0 -3 268 -2 267
180 0 180 0 0 -35z m369 -223 c57 -141 104 -261 105 -267 2 -14 -52 -19 -68
-6 -7 6 -25 42 -40 81 l-28 70 -107 0 -108 0 -30 -77 -30 -78 -39 0 c-22 0
-38 5 -37 10 1 8 67 172 199 493 11 27 18 32 46 32 l33 0 104 -258z m502 243
c40 -21 69 -71 69 -118 0 -43 -26 -106 -47 -114 -19 -7 -16 -21 7 -28 54 -17
78 -130 40 -192 -36 -59 -67 -68 -235 -68 l-150 0 -3 268 -2 267 145 0 c112 0
153 -4 176 -15z m487 1 c38 -20 68 -55 87 -100 30 -70 -1 -165 -64 -204 l-30
-18 60 -94 c32 -52 59 -98 59 -102 0 -4 -18 -8 -39 -8 -38 0 -40 1 -97 95
l-59 94 -67 1 -67 0 -3 -92 -3 -93 -35 0 -35 0 -3 268 -2 267 135 0 c97 0 144
-4 163 -14z m280 -253 l-3 -268 -35 0 -35 0 -3 268 -2 267 40 0 40 0 -2 -267z
m417 246 c25 -12 48 -26 51 -31 6 -9 -14 -68 -23 -68 -2 0 -17 10 -34 22 -40
30 -157 38 -193 14 -28 -18 -42 -66 -27 -94 12 -23 38 -34 150 -63 108 -28
151 -63 158 -130 7 -60 -17 -111 -66 -141 -31 -20 -50 -23 -131 -23 -85 0
-101 3 -152 29 -61 31 -69 46 -42 84 l15 23 29 -24 c62 -53 215 -63 252 -17
46 57 8 101 -117 135 -110 30 -145 51 -168 98 -34 69 3 160 78 193 49 21 167
18 220 -7z m-1684 -676 c-5 -10 -23 -33 -38 -52 -26 -30 -31 -33 -52 -22 -15
8 -19 16 -14 24 5 7 17 24 26 40 14 21 25 27 53 27 30 0 33 -2 25 -17z m-1873
-170 l3 -33 -140 0 -141 0 0 -85 0 -85 115 0 115 0 0 -30 0 -30 -115 0 -115 0
0 -120 0 -120 -40 0 -40 0 0 263 c0 145 3 267 7 271 4 3 84 5 177 4 l171 -3 3
-32z m437 2 l0 -30 -142 -3 -143 -3 0 -84 0 -85 125 0 125 0 0 -30 0 -30 -125
0 -125 0 0 -90 0 -90 145 0 145 0 0 -30 0 -30 -179 0 -180 0 -3 263 c-2 144
-2 265 0 270 2 4 83 6 180 5 l177 -3 0 -30z m393 12 c43 -23 83 -86 89 -140 7
-58 -25 -131 -66 -155 -17 -9 -31 -21 -31 -26 0 -5 27 -52 60 -103 l59 -93
-43 0 -43 0 -59 95 -59 95 -67 0 -68 0 0 -95 0 -95 -34 0 -35 0 -3 263 c-2
144 -2 266 1 271 2 4 63 6 135 4 99 -3 139 -8 164 -21z m413 -183 c190 -239
173 -242 167 24 l-3 172 37 0 38 0 0 -265 0 -265 -32 0 c-31 0 -44 14 -188
194 l-155 194 -3 -194 -2 -194 -34 0 -35 0 -3 263 c-2 144 -2 265 0 270 2 4
14 7 26 7 18 0 59 -45 187 -206z m586 194 c11 -15 213 -509 213 -520 0 -5 -17
-8 -38 -8 l-37 0 -29 75 -29 76 -110 -3 -111 -3 -29 -72 -29 -73 -40 0 c-28 0
-39 4 -35 13 7 16 185 453 203 495 10 24 19 32 37 32 14 0 29 -6 34 -12z m498
-185 c87 -109 162 -200 167 -202 7 -2 9 65 7 193 l-4 196 38 0 37 0 0 -265 0
-265 -32 0 c-31 0 -44 14 -188 195 l-155 194 -3 -194 -2 -195 -34 0 -35 0 -3
263 c-2 144 -2 265 0 270 2 4 14 7 27 7 19 0 56 -40 180 -197z m658 176 c56
-18 111 -71 137 -130 18 -44 21 -66 18 -139 -3 -76 -7 -93 -33 -136 -19 -30
-49 -60 -79 -79 -48 -29 -54 -30 -188 -33 l-138 -4 0 264 c0 146 3 268 8 273
10 11 230 -2 275 -16z m622 -14 l0 -30 -142 -3 -143 -3 0 -84 0 -85 125 0 125
0 0 -30 0 -30 -125 0 -125 0 0 -90 0 -90 145 0 145 0 0 -30 0 -30 -179 0 -180
0 -3 263 c-2 144 -2 265 0 270 2 4 83 6 180 5 l177 -3 0 -30z m493 2 c3 -23
-25 -63 -164 -235 l-167 -207 167 -3 166 -2 0 -30 0 -30 -215 0 -215 0 0 28
c1 20 44 80 170 232 l168 205 -164 3 -164 2 0 29 c0 15 3 31 7 35 4 3 97 5
207 4 l201 -3 3 -28z m382 -207 l0 -240 145 0 145 0 0 -30 0 -30 -180 0 -180
0 0 270 0 270 35 0 35 0 0 -240z m633 203 c9 -21 58 -143 111 -271 l95 -233
-41 3 c-42 3 -42 3 -71 76 l-30 73 -109 -3 -110 -3 -28 -70 c-27 -70 -28 -70
-69 -73 -39 -3 -41 -2 -32 20 5 13 50 124 101 248 51 124 96 235 101 248 6 16
17 22 38 22 24 0 31 -6 44 -37z m635 0 l3 -33 -145 0 -146 0 0 -85 0 -85 120
0 120 0 0 -35 0 -35 -120 0 -120 0 0 -115 0 -115 -35 0 -35 0 0 270 0 270 178
-2 177 -3 3 -32z m150 -235 l2 -268 -40 0 -40 0 0 271 0 270 38 -3 37 -3 3
-267z m-3828 -713 c0 -117 4 -185 10 -185 6 0 10 -9 10 -20 0 -27 -36 -27 -50
0 l-11 21 -26 -21 c-32 -25 -103 -27 -143 -3 -37 21 -70 82 -70 127 0 120 112
194 203 132 l37 -25 0 79 c0 73 2 80 20 80 19 0 20 -7 20 -185z m140 155 c0
-25 -4 -30 -25 -30 -21 0 -25 5 -25 30 0 25 4 30 25 30 21 0 25 -5 25 -30z
m1470 23 c0 -5 -10 -20 -23 -35 -15 -19 -26 -25 -36 -19 -11 7 -10 13 4 35 16
23 55 37 55 19z m320 -172 c0 -109 4 -182 10 -186 6 -3 10 -15 10 -26 0 -26
-40 -26 -47 1 -3 11 -7 20 -10 20 -3 0 -16 -9 -30 -20 -18 -14 -41 -20 -74
-20 -40 0 -55 6 -83 30 -42 37 -60 88 -52 142 17 108 117 159 200 103 l36 -24
0 79 c0 73 2 80 20 80 19 0 20 -7 20 -179z m140 149 c0 -23 -4 -30 -20 -30
-16 0 -20 7 -20 30 0 23 4 30 20 30 16 0 20 -7 20 -30z m-3220 0 c0 -19 -7
-20 -110 -20 l-110 0 0 -70 0 -70 95 0 c78 0 95 -3 95 -15 0 -12 -17 -15 -95
-15 l-95 0 0 -75 0 -75 115 0 c108 0 115 -1 115 -20 0 -19 -7 -20 -135 -20
l-135 0 0 200 0 200 130 0 c123 0 130 -1 130 -20z m2060 -117 c0 -217 -23
-263 -128 -263 -64 0 -106 20 -86 40 8 8 22 9 45 2 48 -12 93 2 108 35 8 17
15 88 19 176 4 135 6 147 23 147 18 0 19 -10 19 -137z m-1640 77 c0 -49 1 -50
30 -50 20 0 30 -5 30 -15 0 -10 -10 -15 -30 -15 l-31 0 3 -107 3 -108 38 1
c29 1 37 -2 37 -16 0 -31 -70 -42 -106 -16 -16 13 -19 29 -22 130 -3 92 -7
116 -18 116 -8 0 -14 7 -14 15 0 8 7 15 15 15 11 0 15 12 15 50 0 47 2 50 25
50 23 0 25 -3 25 -50z m-175 -54 c32 -14 44 -34 29 -49 -4 -3 -17 1 -30 10
-29 19 -98 21 -119 3 -19 -16 -19 -44 -1 -60 8 -6 38 -18 66 -25 79 -21 100
-38 100 -85 0 -54 -34 -80 -107 -80 -60 0 -123 22 -123 43 0 25 12 26 48 6 20
-10 50 -19 67 -19 57 0 97 50 63 78 -7 6 -39 17 -71 25 -72 19 -97 40 -97 82
0 69 91 106 175 71z m1338 -12 c15 -10 36 -38 48 -62 31 -62 20 -123 -31 -174
-34 -34 -43 -38 -89 -38 -97 0 -151 52 -151 145 0 94 66 159 151 152 25 -2 58
-12 72 -23z m1057 7 c0 -13 -11 -23 -35 -31 -61 -20 -75 -49 -75 -156 0 -87
-1 -94 -20 -94 -19 0 -20 7 -20 145 0 138 1 145 20 145 15 0 20 -7 20 -27 0
-24 2 -25 13 -10 13 18 65 47 85 47 6 0 12 -9 12 -19z m879 -8 c31 -24 40 -53
16 -53 -9 0 -28 9 -42 20 -63 50 -163 -6 -163 -90 0 -90 111 -149 166 -89 29
32 75 21 51 -12 -25 -32 -62 -49 -110 -49 -88 0 -139 49 -145 140 -3 45 0 61
20 90 46 69 144 89 207 43z m288 10 c94 -44 108 -181 28 -252 -67 -58 -181
-36 -218 42 -38 80 -10 173 63 209 44 22 82 23 127 1z m-3215 -104 c3 -103 5
-112 27 -131 33 -26 67 -17 109 27 31 34 32 37 32 125 0 83 1 90 20 90 19 0
20 -7 20 -114 0 -62 3 -128 6 -146 6 -28 4 -32 -12 -28 -10 2 -23 13 -29 24
l-11 22 -29 -24 c-21 -17 -43 -24 -72 -24 -88 0 -103 26 -103 180 0 102 1 110
19 110 18 0 20 -10 23 -111z m698 -34 l0 -145 -25 0 -25 0 0 145 0 145 25 0
25 0 0 -145z m902 34 c3 -103 5 -112 27 -131 33 -26 67 -17 109 27 31 34 32
37 32 125 0 83 1 90 20 90 19 0 20 -7 20 -114 0 -62 3 -128 6 -146 6 -28 4
-32 -12 -28 -10 2 -23 13 -29 24 l-11 22 -27 -24 c-20 -17 -40 -24 -72 -24
-91 0 -105 25 -105 180 0 102 1 110 19 110 18 0 20 -10 23 -111z m538 -34 c0
-138 -1 -145 -20 -145 -19 0 -20 7 -20 145 0 138 1 145 20 145 19 0 20 -7 20
-145z m490 0 c0 -138 -1 -145 -20 -145 -19 0 -20 7 -20 145 0 138 1 145 20
145 19 0 20 -7 20 -145z"/>
<path d="M5065 3665 c-31 -30 -31 -41 1 -88 l25 -38 28 20 c58 42 69 74 36
107 -31 31 -59 31 -90 -1z"/>
<path d="M5042 3417 c-54 -56 -36 -135 34 -153 37 -10 103 2 125 21 18 17 16
20 -47 91 -37 41 -70 74 -73 74 -4 0 -21 -15 -39 -33z"/>
<path d="M2703 3527 l-41 -102 44 -3 c24 -2 64 -2 88 0 l44 3 -41 103 c-22 56
-43 102 -46 102 -3 0 -25 -46 -48 -103z"/>
<path d="M3150 3590 l0 -80 93 0 c112 0 137 15 137 80 0 67 -22 80 -135 80
l-95 0 0 -80z"/>
<path d="M3150 3355 l0 -85 99 0 c91 0 102 2 127 24 37 31 38 84 4 121 -22 24
-29 25 -127 25 l-103 0 0 -85z"/>
<path d="M3660 3565 l0 -105 86 0 c47 0 94 5 105 10 24 13 49 61 49 95 0 34
-25 82 -49 95 -11 5 -58 10 -105 10 l-86 0 0 -105z"/>
<path d="M1620 2729 l0 -111 94 4 c75 2 98 7 115 22 51 46 44 142 -12 176 -25
16 -50 20 -114 20 l-83 0 0 -111z"/>
<path d="M2772 2702 c-23 -59 -42 -111 -42 -115 0 -4 40 -7 89 -7 l89 0 -39
101 c-22 56 -43 107 -47 115 -4 8 -23 -28 -50 -94z"/>
<path d="M3792 2638 l3 -203 82 1 c107 1 148 22 185 94 63 119 14 268 -97 299
-22 6 -70 11 -108 11 l-67 0 2 -202z"/>
<path d="M6041 2694 c-23 -59 -40 -109 -38 -111 3 -2 43 -3 89 -1 l85 3 -41
107 c-23 60 -44 108 -47 108 -3 0 -25 -48 -48 -106z"/>
<path d="M2897 1940 c-54 -43 -56 -130 -4 -177 32 -30 61 -36 100 -19 44 18
57 42 57 101 0 57 -12 80 -50 100 -40 20 -72 19 -103 -5z"/>
<path d="M4837 1950 c-44 -28 -62 -124 -31 -169 9 -13 32 -29 50 -37 29 -12
39 -12 68 0 43 18 56 42 56 105 0 65 -28 100 -85 107 -22 2 -48 0 -58 -6z"/>
<path d="M3380 1933 c-88 -79 -11 -233 94 -189 43 18 66 51 66 98 0 50 -18 87
-51 104 -42 21 -75 17 -109 -13z"/>
<path d="M5620 1931 c-37 -36 -46 -72 -31 -122 30 -101 162 -96 190 9 29 104
-87 186 -159 113z"/>
</g>
</svg>
