<?xml version="1.0" standalone="no"?>
<!DOCTYPE svg PUBLIC "-//W3C//DTD SVG 20010904//EN"
 "http://www.w3.org/TR/2001/REC-SVG-20010904/DTD/svg10.dtd">
<svg version="1.0" xmlns="http://www.w3.org/2000/svg"
 width="1817.000000pt" height="1074.000000pt" viewBox="0 0 1817.000000 1074.000000"
 preserveAspectRatio="xMidYMid meet">

<g transform="translate(0.000000,1074.000000) scale(0.100000,-0.100000)"
fill="#000000" stroke="none">
<path d="M3592 7437 c2 -7 28 -113 58 -235 l55 -222 417 0 418 0 6 28 c20 84
103 410 109 425 7 16 -22 17 -530 17 -437 0 -536 -2 -533 -13z"/>
<path d="M2377 7308 c29 -73 63 -224 63 -285 l0 -43 449 0 449 0 16 -72 c50
-221 140 -757 168 -1001 14 -128 6 -121 154 -132 l101 -7 -14 114 c-54 457
-134 908 -230 1301 l-46 187 -568 0 -568 0 26 -62z"/>
<path d="M4745 7318 c-94 -328 -205 -937 -270 -1490 l-7 -58 33 0 c38 0 200
18 205 22 1 2 14 92 29 201 42 324 152 947 172 979 2 5 204 8 448 8 l444 0 5
45 c3 25 9 66 12 93 5 39 42 165 69 235 7 16 -24 17 -559 17 l-565 0 -16 -52z"/>
<path d="M3733 6838 c27 -105 106 -598 137 -848 11 -91 23 -180 26 -197 l5
-33 222 0 222 0 33 253 c32 247 83 572 120 755 l18 92 -394 0 -394 0 5 -22z"/>
<path d="M10206 6809 c-121 -18 -205 -86 -227 -184 -17 -77 -5 -138 37 -185
41 -45 94 -69 234 -105 58 -15 126 -38 152 -51 69 -35 95 -96 66 -159 -45 -99
-280 -99 -427 -1 -54 37 -55 37 -86 -23 -19 -37 -22 -32 51 -76 149 -90 382
-98 498 -17 22 15 50 47 63 72 21 38 24 56 21 121 -2 63 -7 81 -29 110 -39 50
-108 83 -248 119 -68 17 -141 40 -163 51 -102 52 -78 196 38 228 87 24 219 0
287 -52 l33 -25 27 44 27 45 -48 30 c-81 52 -198 74 -306 58z"/>
<path d="M11246 6806 c-57 -21 -87 -47 -114 -97 -39 -73 -21 -149 60 -252 l22
-27 -24 -17 c-38 -25 -98 -90 -115 -124 -41 -78 -27 -185 32 -250 56 -61 104
-82 203 -87 98 -5 170 17 230 67 l35 30 46 -45 46 -45 67 3 66 3 -76 82 -75
83 27 67 c16 40 29 96 32 136 l5 67 -40 0 -40 0 -10 -63 c-6 -34 -18 -80 -27
-102 l-16 -39 -103 109 c-56 59 -103 111 -105 115 -2 4 12 17 31 29 53 32 114
104 128 149 23 77 -13 158 -86 196 -50 26 -146 31 -199 12z m137 -77 c34 -18
57 -51 57 -86 0 -36 -34 -81 -94 -125 -38 -27 -40 -27 -59 -11 -65 58 -91 127
-66 174 25 48 112 74 162 48z m19 -493 l117 -123 -22 -21 c-36 -32 -86 -53
-143 -59 -77 -8 -154 30 -183 91 -25 51 -26 65 -6 114 16 38 91 122 110 122 5
0 63 -56 127 -124z"/>
<path d="M6590 6385 l0 -425 55 0 55 0 0 190 0 190 190 0 190 0 0 45 0 45
-190 0 -190 0 0 140 0 140 225 0 225 0 0 50 0 50 -280 0 -280 0 0 -425z"/>
<path d="M7311 6391 c-94 -230 -171 -421 -171 -425 0 -4 26 -6 57 -4 l57 3 49
123 49 122 177 0 176 0 50 -125 50 -125 59 0 c42 0 57 3 53 13 -2 6 -80 198
-173 425 l-168 412 -47 0 -46 0 -172 -419z m294 98 c39 -99 72 -185 73 -190 2
-5 -61 -9 -147 -9 -91 0 -151 4 -151 10 0 15 143 370 149 370 4 0 38 -81 76
-181z"/>
<path d="M8050 6385 l0 -425 229 0 c148 0 240 4 262 12 123 42 183 156 148
281 -12 46 -68 110 -110 127 l-30 13 36 29 c58 48 78 98 73 184 -3 61 -8 80
-33 116 -18 25 -49 52 -75 66 -42 21 -56 22 -272 22 l-228 0 0 -425z m429 317
c53 -26 75 -64 75 -125 0 -40 -6 -61 -23 -86 -37 -52 -72 -61 -231 -61 l-140
0 0 145 0 145 143 0 c115 0 148 -3 176 -18z m47 -381 c63 -39 83 -148 37 -209
-40 -53 -73 -62 -245 -62 l-158 0 0 145 0 145 168 0 c146 0 171 -2 198 -19z"/>
<path d="M8870 6385 l0 -425 55 0 55 0 0 150 0 150 114 0 115 0 92 -146 c51
-81 98 -148 105 -151 6 -2 34 -3 63 -1 l51 3 -100 159 c-56 87 -99 159 -98
161 2 1 18 7 36 15 77 31 137 138 135 245 -1 105 -87 225 -181 253 -25 8 -114
12 -241 12 l-201 0 0 -425z m455 282 c69 -69 80 -147 32 -232 -37 -64 -70 -75
-234 -75 l-143 0 0 175 0 175 151 0 152 0 42 -43z"/>
<path d="M9680 6385 l0 -425 50 0 50 0 0 425 0 425 -50 0 -50 0 0 -425z"/>
<path d="M2330 5945 c0 -6 229 -140 368 -215 359 -194 720 -324 1057 -382 177
-30 543 -33 710 -5 335 56 657 168 1019 355 144 74 438 243 433 248 -1 2 -69
-19 -150 -46 -333 -111 -736 -196 -1112 -235 -210 -22 -651 -30 -865 -16 -454
31 -892 114 -1307 249 -84 27 -153 48 -153 47z"/>
<path d="M10041 5559 c-18 -33 -31 -62 -30 -63 2 -2 18 -8 35 -14 31 -10 32
-9 75 51 67 94 67 87 7 87 l-53 0 -34 -61z"/>
<path d="M2587 5183 l-196 -338 27 -23 c78 -66 245 -122 367 -122 122 0 286
55 368 122 l27 23 -191 330 c-105 182 -194 334 -198 338 -5 5 -96 -144 -204
-330z m342 -45 c72 -126 131 -230 131 -233 0 -3 -121 -5 -270 -5 -196 0 -270
3 -270 11 0 20 264 469 271 462 3 -5 66 -110 138 -235z"/>
<path d="M5258 5180 l-196 -340 53 -35 c72 -47 130 -71 219 -90 142 -29 267
-12 401 54 137 68 145 27 -77 414 -106 185 -195 336 -198 337 -3 0 -94 -153
-202 -340z m345 -46 c70 -121 127 -224 127 -227 0 -4 -122 -7 -271 -7 -221 0
-270 2 -267 13 2 8 62 116 133 240 97 169 133 223 141 214 6 -7 68 -111 137
-233z"/>
<path d="M6590 4945 l0 -425 55 0 55 0 0 190 0 190 190 0 190 0 0 45 0 45
-187 2 -188 3 0 140 0 140 223 3 222 2 0 45 0 45 -280 0 -280 0 0 -425z"/>
<path d="M7290 4945 l0 -425 290 0 290 0 0 50 0 50 -235 0 -235 0 0 145 0 145
200 0 200 0 0 45 0 45 -200 0 -200 0 0 140 0 140 230 0 230 0 0 45 0 45 -285
0 -285 0 0 -425z"/>
<path d="M8020 4945 l0 -425 50 0 49 0 3 153 3 152 111 3 112 3 98 -156 97
-155 63 0 63 0 -100 157 c-54 86 -99 159 -99 163 0 3 16 14 36 25 86 46 142
157 131 260 -10 96 -70 183 -152 221 -47 23 -61 24 -257 24 l-208 0 0 -425z
m392 325 c43 -12 91 -63 108 -115 23 -70 -7 -167 -64 -208 -29 -20 -42 -22
-181 -22 l-150 0 -3 165 c-1 90 0 170 2 177 7 16 232 18 288 3z"/>
<path d="M8820 4945 l0 -425 55 0 55 0 2 320 3 320 255 -319 255 -320 48 0 47
-1 0 425 0 425 -55 0 -55 0 -2 -326 -3 -325 -259 325 -259 326 -44 0 -43 0 0
-425z"/>
<path d="M10001 5348 c-20 -53 -333 -813 -338 -821 -2 -4 23 -7 57 -5 l63 3
47 120 47 120 179 3 179 2 50 -125 50 -125 59 0 c42 0 57 3 53 13 -2 6 -80
198 -173 425 l-168 412 -48 0 c-41 0 -50 -3 -57 -22z m134 -298 c37 -96 70
-181 72 -187 4 -10 -29 -13 -146 -13 -113 0 -151 3 -151 12 0 23 145 377 151
370 3 -4 36 -86 74 -182z"/>
<path d="M10580 4945 l0 -425 50 0 50 0 0 320 c0 176 3 320 8 320 4 -1 121
-145 261 -320 l255 -320 48 0 48 0 0 425 0 425 -55 0 -55 0 0 -326 c0 -179 -4
-323 -8 -320 -5 3 -123 149 -263 325 l-254 321 -42 0 -43 0 0 -425z"/>
<path d="M11520 4945 l0 -427 198 4 c173 4 204 7 254 27 154 60 235 182 246
367 11 200 -68 348 -226 422 -55 26 -64 27 -264 30 l-208 4 0 -427z m415 306
c65 -29 118 -81 147 -145 19 -43 23 -68 23 -157 0 -101 -2 -109 -35 -175 -27
-53 -46 -76 -83 -101 -67 -45 -104 -53 -244 -53 l-123 0 0 323 c0 178 3 327 8
331 4 5 63 6 132 4 101 -4 135 -9 175 -27z"/>
<path d="M12390 4945 l0 -425 290 0 290 0 0 50 0 50 -235 0 -235 0 0 145 0
145 200 0 200 0 0 45 0 45 -197 2 -198 3 0 135 0 135 228 3 227 2 0 45 0 45
-285 0 -285 0 0 -425z"/>
<path d="M13090 5325 l0 -45 265 0 c146 0 265 -4 265 -8 0 -4 -121 -156 -270
-337 -258 -316 -270 -332 -270 -372 l0 -43 340 0 340 0 0 50 0 50 -265 0
c-146 0 -265 2 -265 5 0 3 119 154 265 335 249 309 265 331 265 369 l0 41
-335 0 -335 0 0 -45z"/>
<path d="M14270 4945 l0 -425 290 0 290 0 0 50 0 50 -240 0 -240 0 0 375 0
375 -50 0 -50 0 0 -425z"/>
<path d="M15277 5363 c-4 -7 -317 -767 -338 -820 -8 -22 -7 -23 50 -23 l58 0
49 125 49 125 179 -2 179 -3 50 -122 50 -123 59 0 58 0 -18 43 c-9 24 -87 216
-172 425 l-155 382 -47 0 c-26 0 -49 -3 -51 -7z m123 -308 c39 -98 70 -184 70
-192 0 -10 -32 -13 -151 -13 -140 0 -151 1 -145 18 30 80 151 371 153 368 2
-1 35 -83 73 -181z"/>
<path d="M15840 4945 l0 -425 55 0 55 0 0 190 0 190 190 0 190 0 0 45 0 45
-187 2 -188 3 0 140 0 140 228 3 227 2 0 45 0 45 -285 0 -285 0 0 -425z"/>
<path d="M16540 4945 l0 -425 55 0 55 0 0 425 0 425 -55 0 -55 0 0 -425z"/>
<path d="M3594 5199 c24 -248 56 -978 56 -1301 l0 -188 115 0 c92 0 117 3 121
14 8 22 -14 820 -31 1116 -17 299 -25 380 -35 380 -11 0 -182 30 -209 37 -24
6 -24 5 -17 -58z"/>
<path d="M4524 5237 l-111 -20 -12 -191 c-25 -412 -31 -555 -38 -928 l-6 -388
116 0 117 0 0 48 c2 336 29 1025 54 1350 7 101 8 152 1 151 -5 -1 -60 -11
-121 -22z"/>
<path d="M3954 5150 c20 -191 43 -723 52 -1197 l7 -353 -300 0 -301 0 -53 -28
c-39 -20 -58 -38 -76 -71 -21 -41 -23 -56 -23 -198 l0 -153 866 0 866 0 -4
158 c-3 145 -5 160 -27 195 -13 21 -42 50 -64 65 l-40 27 -309 3 -308 3 0 277
c0 358 15 767 46 1232 l7 95 -172 0 -172 0 5 -55z"/>
<path d="M8450 3908 l0 -112 -27 26 c-41 38 -66 48 -118 48 -72 0 -122 -34
-160 -109 -26 -52 -18 -156 18 -209 58 -89 176 -108 257 -43 l40 32 0 -25 c0
-24 24 -46 49 -46 14 0 14 47 1 55 -6 4 -10 98 -10 251 l0 244 -25 0 -25 0 0
-112z m-87 -92 c18 -7 45 -28 60 -45 24 -29 27 -41 27 -105 0 -87 -17 -116
-84 -141 -36 -14 -51 -15 -79 -6 -62 21 -107 86 -107 155 0 48 40 116 80 137
41 23 60 23 103 5z"/>
<path d="M8630 3985 c0 -31 3 -35 25 -35 22 0 25 4 25 35 0 31 -3 35 -25 35
-22 0 -25 -4 -25 -35z"/>
<path d="M10617 3990 c-17 -29 -16 -50 3 -50 4 0 23 18 40 40 l32 40 -29 0
c-21 0 -33 -8 -46 -30z"/>
<path d="M11070 3908 l0 -112 -27 26 c-41 38 -66 48 -118 48 -110 0 -182 -92
-173 -220 8 -113 89 -187 195 -178 41 4 62 12 93 37 l40 32 0 -25 c0 -15 8
-30 19 -36 35 -18 44 -13 36 23 -5 17 -10 141 -12 275 l-4 242 -24 0 -25 0 0
-112z m-93 -89 c15 -5 43 -24 61 -42 31 -30 32 -34 32 -108 0 -91 -16 -118
-84 -144 -36 -14 -51 -15 -79 -6 -62 21 -107 86 -107 155 0 48 40 116 80 137
40 22 58 23 97 8z"/>
<path d="M11250 3985 c0 -32 2 -35 30 -35 28 0 30 3 30 35 0 32 -2 35 -30 35
-28 0 -30 -3 -30 -35z"/>
<path d="M6590 3745 l0 -265 180 0 c173 0 180 1 180 20 0 19 -7 20 -155 20
l-156 0 3 103 3 102 128 3 c119 2 127 4 127 22 0 19 -7 20 -130 20 l-130 0 0
95 0 95 150 0 150 0 0 25 0 25 -175 0 -175 0 0 -265z"/>
<path d="M9680 3828 c0 -244 -13 -287 -90 -308 -28 -7 -49 -6 -86 5 -27 8 -50
15 -50 15 -1 0 -4 -9 -7 -20 -8 -29 39 -50 110 -50 75 0 120 23 147 75 19 36
21 61 24 253 l3 212 -25 0 -26 0 0 -182z"/>
<path d="M7460 3935 l0 -65 -30 0 c-23 0 -30 -5 -30 -19 0 -14 8 -21 28 -23
l27 -3 5 -160 c3 -88 9 -165 13 -172 12 -19 70 -26 114 -14 34 9 40 15 36 31
-5 17 -11 19 -44 14 -65 -11 -69 -2 -69 162 l0 144 46 0 c38 0 45 3 42 18 -2
12 -15 18 -46 20 l-42 3 0 65 c0 62 -1 64 -25 64 -24 0 -25 -2 -25 -65z"/>
<path d="M7098 3854 c-48 -25 -72 -99 -48 -143 11 -21 60 -42 137 -61 97 -22
127 -67 78 -115 -34 -35 -114 -35 -178 0 -46 24 -47 24 -57 4 -10 -17 -5 -22
42 -44 64 -30 152 -33 204 -9 79 38 85 143 10 178 -17 8 -60 22 -96 31 -36 9
-73 24 -82 32 -25 22 -22 56 6 82 22 21 33 23 85 19 40 -3 67 -11 81 -23 23
-21 47 -8 36 20 -15 41 -161 60 -218 29z"/>
<path d="M7690 3725 c0 -206 25 -255 129 -255 52 0 81 12 125 50 l36 32 0 -31
c0 -29 21 -51 49 -51 14 0 14 47 1 55 -6 4 -10 73 -10 176 l0 169 -25 0 -25 0
0 -129 c0 -117 -2 -131 -23 -162 -31 -46 -104 -77 -144 -60 -51 21 -58 43 -61
204 l-4 147 -24 0 -24 0 0 -145z"/>
<path d="M8637 3863 c-4 -3 -7 -91 -7 -195 l0 -188 25 0 25 0 0 195 c0 182 -1
195 -18 195 -10 0 -22 -3 -25 -7z"/>
<path d="M8878 3841 c-123 -78 -116 -285 12 -351 89 -45 197 -16 251 68 28 43
30 53 27 118 -3 57 -9 79 -31 112 -56 85 -172 108 -259 53z m163 -34 c103 -70
106 -197 6 -271 -114 -84 -266 93 -184 215 29 43 82 79 117 79 15 0 42 -10 61
-23z"/>
<path d="M9860 3725 c0 -206 25 -255 129 -255 52 0 81 12 125 50 l36 32 0 -31
c0 -29 21 -51 49 -51 14 0 14 47 1 55 -6 4 -10 74 -10 176 l0 170 -22 -3 c-22
-3 -23 -7 -26 -131 -3 -138 -9 -160 -61 -196 -15 -11 -43 -22 -63 -26 -31 -6
-40 -3 -69 23 l-34 30 -3 151 -4 151 -24 0 -24 0 0 -145z"/>
<path d="M10327 3863 c-4 -3 -7 -91 -7 -195 l0 -188 25 0 25 0 0 115 c0 126 9
157 56 194 14 11 41 23 60 27 27 5 34 11 34 30 0 40 -62 25 -117 -29 l-33 -31
0 42 c0 34 -3 42 -18 42 -10 0 -22 -3 -25 -7z"/>
<path d="M10600 3675 l0 -195 25 0 25 0 0 195 0 195 -25 0 -25 0 0 -195z"/>
<path d="M11257 3864 c-4 -4 -7 -92 -7 -196 l0 -188 30 0 30 0 -2 193 c-3 185
-4 192 -23 195 -12 2 -24 0 -28 -4z"/>
<path d="M11515 3854 c-45 -25 -65 -45 -87 -88 -29 -57 -22 -158 14 -213 58
-88 195 -111 275 -46 45 36 52 58 22 66 -16 4 -29 -1 -44 -17 -86 -93 -235
-17 -235 121 0 126 143 198 227 114 23 -23 33 -26 52 -19 22 8 22 10 9 30 -30
45 -65 62 -136 65 -48 2 -76 -1 -97 -13z"/>
<path d="M11918 3841 c-162 -103 -90 -371 99 -371 120 0 193 77 193 203 0 53
-5 71 -29 110 -57 89 -173 115 -263 58z m162 -31 c75 -38 104 -151 58 -220
-69 -101 -167 -100 -236 1 -20 28 -23 43 -20 87 5 59 27 95 78 130 41 27 69
28 120 2z"/>
</g>
</svg>
